<svg xmlns="http://www.w3.org/2000/svg" xmlns:xlink="http://www.w3.org/1999/xlink" viewBox="0 0 114.52 165.23"><defs><style>.cls-1{fill:url(#Dégradé_sans_nom_25);}.cls-2{fill:url(#Dégradé_sans_nom_51);}</style><linearGradient id="Dégradé_sans_nom_25" x1="6.56" y1="107.99" x2="114.52" y2="107.99" gradientUnits="userSpaceOnUse"><stop offset="0.03" stop-color="#fff"/><stop offset="0.04" stop-color="#f5fbfa"/><stop offset="0.11" stop-color="#ace2d8"/><stop offset="0.18" stop-color="#6ecdbb"/><stop offset="0.24" stop-color="#3fbda5"/><stop offset="0.29" stop-color="#1db194"/><stop offset="0.33" stop-color="#08aa8b"/><stop offset="0.36" stop-color="#00a787"/></linearGradient><linearGradient id="Dégradé_sans_nom_51" x1="-27.1" y1="84.02" x2="53.24" y2="81.96" gradientUnits="userSpaceOnUse"><stop offset="0.63" stop-color="#03ecbf"/><stop offset="0.7" stop-color="#03e8bc"/><stop offset="0.76" stop-color="#02dbb2"/><stop offset="0.83" stop-color="#01c7a1"/><stop offset="0.89" stop-color="#00aa89"/><stop offset="0.9" stop-color="#00a787"/></linearGradient></defs><title>arrowFichier 6</title><g id="Calque_2" data-name="Calque 2"><g id="Calque_1-2" data-name="Calque 1"><path class="cls-1" d="M114.52,108a57.25,57.25,0,0,0-108-26.57v24a50.76,50.76,0,1,1,52.7,53.26v6.5A57.32,57.32,0,0,0,114.52,108Z"/><path class="cls-2" d="M6.56,110.55V0H.06V108H0c0,.85,0,1.69.06,2.52v.14h0a57.31,57.31,0,0,0,55.19,54.55v-6.5A50.82,50.82,0,0,1,6.56,110.55Z"/></g></g></svg>